# xmcd
#
# Track frame offsets: 
#        150
#        21065
#        35257
#        52785
#        68119
#        84491
#        100622
#        113649
#        128719
#        146003
#        161939
#
# Disc length: 2353 seconds
#
# Revision: 0
# Processed by: cddbd v1.5.2PL0 Copyright (c) Steve Scherf et al.
# Submitted via: ExactAudioCopyFreeDBPlugin 1.0
#
DISCID=85092f0b
DTITLE=Patricia Vonne - Worth It
DYEAR=2010
DGENRE=
TTITLE0=Worth It
TTITLE1=Cut From the Same Cloth
TTITLE2=Feunte Vaqueros
TTITLE3=Truth Awakening
TTITLE4=Castle Walls
TTITLE5=El Marinero y Las Sirena
TTITLE6=Cowskulls and Ghostowns
TTITLE7=Love is a Bounty
TTITLE8=La Lomita de Santa Cruz
TTITLE9=Gin and Platonic
TTITLE10=Rave On "Til Dawn"
EXTD=
EXTT0=
EXTT1=
EXTT2=
EXTT3=
EXTT4=
EXTT5=
EXTT6=
EXTT7=
EXTT8=
EXTT9=
EXTT10=
PLAYORDER=
